<?xml version="1.0" encoding="utf-8"?>
<!-- Generator: Adobe Illustrator 24.0.1, SVG Export Plug-In . SVG Version: 6.00 Build 0)  -->
<svg version="1.1" id="Layer_1" xmlns="http://www.w3.org/2000/svg" xmlns:xlink="http://www.w3.org/1999/xlink" x="0px" y="0px"
	 viewBox="0 0 612 792" style="enable-background:new 0 0 612 792;" xml:space="preserve">
<style type="text/css">
	.st0{fill:#006838;stroke:#00A651;stroke-width:8;stroke-miterlimit:10;}
	.st1{fill:#00A651;stroke:#39B54A;stroke-width:6;stroke-miterlimit:10;}
	.st2{fill:#ED1C24;stroke:#FFF200;stroke-width:5;stroke-miterlimit:10;}
</style>
<g>
	<path class="st0" d="M409.96,537.8c-74.26,44.61-111.91-59.02-111.91-59.02s-42.3,112.39-113.03,56.84s22.66-122.49,22.66-122.49
		s-115.26-22.68-90.15-87.78s125.92-16.68,125.92-16.68s-14.66-111.97,57.31-111.09s55.16,112.18,55.16,112.18
		s107.84-51.45,125.57,19.12c17.73,70.57-91.82,86.01-91.82,86.01S484.22,493.19,409.96,537.8z"/>
	
		<ellipse transform="matrix(0.0122 -0.9999 0.9999 0.0122 -84.7692 670.2407)" class="st0" cx="296.86" cy="378.03" rx="115.88" ry="118.28"/>
</g>
<g>
	<path class="st1" d="M501.45,450.28c-36.92,87.11-136.89,17.35-136.89,17.35s34.95,128.11-63.31,122.6s-58.8-124.83-58.8-124.83
		S126,517.65,106.29,443.07s100.55-94.5,100.55-94.5s-85.01-91.79-20.84-136.4s120.94,66.42,120.94,66.42s62.2-114.47,123.28-61.97
		s-25.8,135.55-25.8,135.55S538.38,363.17,501.45,450.28z"/>
	<circle class="st1" cx="298.69" cy="377.46" r="128.44"/>
</g>
<g>
	<path class="st2" d="M102.78,302.5l39.63,83.96l39.63,83.96h-14.42h-14.42l-12.83-27.37l-12.83-27.37H91.41H55.28L42,443.05
		l-13.27,27.37h-7.11H14.5l40.58-83.96l40.58-83.96h3.56H102.78z M60.23,405.23h31.06h31.06l-15.31-32.41l-15.31-32.41l-15.75,32.41
		L60.23,405.23z"/>
	<path class="st2" d="M227.39,389.18c0,5.72,0.44,11.15,1.33,16.28c0.89,5.13,2.22,9.97,4,14.52c1.78,4.55,3.89,8.75,6.34,12.59
		s5.22,7.35,8.34,10.49s6.5,5.93,10.18,8.33c3.67,2.41,7.63,4.44,11.86,6.11c4.23,1.67,8.65,2.92,13.24,3.75s9.37,1.25,14.32,1.25
		c2.96,0,5.87-0.28,8.73-0.83c2.86-0.56,5.66-1.39,8.42-2.5c2.75-1.11,5.4-2.39,7.95-3.84c2.55-1.45,5-3.07,7.35-4.86
		c2.35-1.79,4.58-3.69,6.68-5.71c2.11-2.02,4.09-4.15,5.95-6.39c1.86-2.24,3.56-4.5,5.08-6.77c1.52-2.27,2.88-4.56,4.07-6.87
		l5.97,3.7l5.97,3.7c-1.74,2.76-3.63,5.46-5.68,8.1c-2.05,2.64-4.27,5.23-6.64,7.76c-2.37,2.53-4.93,4.92-7.67,7.16
		c-2.74,2.24-5.67,4.34-8.78,6.3c-3.11,1.96-6.43,3.71-9.94,5.26s-7.23,2.91-11.14,4.06c-3.92,1.15-8.06,2.02-12.43,2.59
		c-4.37,0.58-8.97,0.86-13.8,0.86c-6.99,0-13.65-0.57-19.99-1.7c-6.34-1.13-12.36-2.83-18.05-5.09c-5.69-2.26-10.98-4.93-15.86-7.99
		c-4.88-3.07-9.35-6.53-13.42-10.4c-4.06-3.87-7.67-8.06-10.81-12.58s-5.83-9.36-8.05-14.52c-2.22-5.16-3.89-10.48-5-15.94
		s-1.67-11.07-1.67-16.84c0-3.83,0.25-7.61,0.76-11.34s1.27-7.42,2.29-11.06c1.02-3.64,2.26-7.17,3.73-10.59
		c1.47-3.42,3.17-6.72,5.1-9.91c1.93-3.19,4.06-6.24,6.41-9.17c2.35-2.92,4.91-5.71,7.69-8.36c2.77-2.65,5.73-5.12,8.86-7.41
		c3.13-2.28,6.45-4.38,9.94-6.3s7.15-3.61,10.97-5.09c3.82-1.48,7.81-2.75,11.96-3.8c4.15-1.05,8.44-1.84,12.86-2.36
		s8.99-0.79,13.69-0.79c4.49,0,8.8,0.29,12.94,0.88c4.14,0.59,8.1,1.47,11.89,2.64c3.79,1.17,7.41,2.54,10.86,4.09
		c3.45,1.55,6.73,3.3,9.84,5.23c3.11,1.93,6.05,4.02,8.83,6.25s5.38,4.61,7.81,7.14c2.43,2.53,4.69,5.12,6.78,7.76s4,5.34,5.73,8.1
		l-6.16,3.95l-6.16,3.95c-3.51-6.63-7.24-12.36-11.18-17.21s-8.09-8.8-12.45-11.87c-4.36-3.07-9.05-5.36-14.07-6.9
		c-5.02-1.53-10.36-2.3-16.04-2.3c-4.87,0-9.58,0.43-14.13,1.3c-4.55,0.86-8.94,2.16-13.18,3.89c-4.23,1.73-8.2,3.83-11.89,6.3
		c-3.69,2.47-7.12,5.31-10.27,8.52c-3.15,3.21-5.97,6.76-8.45,10.66s-4.61,8.14-6.41,12.73c-1.8,4.59-3.15,9.47-4.05,14.65
		C227.84,377.95,227.39,383.42,227.39,389.18z"/>
	<path class="st2" d="M402.54,306.71h14.16h14.16c0,0,28.33,81.85,0,81.85s0,81.85,0,81.85h-14.16h-14.16c0,0-28.33-81.85,0-81.85
		S402.54,306.71,402.54,306.71z"/>
	<path class="st2" d="M476.6,306.71h14.16h14.16c0,0,28.32,81.85,0,81.85c-28.33,0,0,81.85,0,81.85h-14.16H476.6
		c0,0-28.33-81.85,0-81.85S476.6,306.71,476.6,306.71z"/>
	<path class="st2" d="M550.65,306.71h14.16h14.16c0,0,28.32,81.85,0,81.85c-28.33,0,0,81.85,0,81.85h-14.16h-14.16
		c0,0-28.33-81.85,0-81.85S550.65,306.71,550.65,306.71z"/>
</g>
</svg>
